<?xml version="1.0" encoding="UTF-8" standalone="no"?>
<!-- Created with Inkscape (http://www.inkscape.org/) -->

<svg
   xmlns:osb="http://www.openswatchbook.org/uri/2009/osb"
   xmlns:dc="http://purl.org/dc/elements/1.1/"
   xmlns:cc="http://creativecommons.org/ns#"
   xmlns:rdf="http://www.w3.org/1999/02/22-rdf-syntax-ns#"
   xmlns:svg="http://www.w3.org/2000/svg"
   xmlns="http://www.w3.org/2000/svg"
   xmlns:sodipodi="http://sodipodi.sourceforge.net/DTD/sodipodi-0.dtd"
   xmlns:inkscape="http://www.inkscape.org/namespaces/inkscape"
   width="744.09448819"
   height="1052.3622047"
   id="svg2"
   version="1.1"
   inkscape:version="0.48.4 r9939"
   sodipodi:docname="New document 1">
  <defs
     id="defs4">
    <linearGradient
       inkscape:collect="always"
       id="linearGradient4058"
       osb:paint="gradient">
      <stop
         style="stop-color:#0000ff;stop-opacity:1;"
         offset="0"
         id="stop4060" />
      <stop
         style="stop-color:#0000ff;stop-opacity:0;"
         offset="1"
         id="stop4062" />
    </linearGradient>
    <clipPath
       id="clipPath2999"
       clipPathUnits="userSpaceOnUse">
      <path
         id="path3001"
         d="M 0,612 792,612 792,0 0,0 0,612 z" />
    </clipPath>
  </defs>
  <sodipodi:namedview
     id="base"
     pagecolor="#ffffff"
     bordercolor="#666666"
     borderopacity="1.0"
     inkscape:pageopacity="0.0"
     inkscape:pageshadow="2"
     inkscape:zoom="1.4142136"
     inkscape:cx="232.19476"
     inkscape:cy="544.85747"
     inkscape:document-units="px"
     inkscape:current-layer="layer1"
     showgrid="false"
     inkscape:window-width="1680"
     inkscape:window-height="997"
     inkscape:window-x="-8"
     inkscape:window-y="-8"
     inkscape:window-maximized="1" />
  <metadata
     id="metadata7">
    <rdf:RDF>
      <cc:Work
         rdf:about="">
        <dc:format>image/svg+xml</dc:format>
        <dc:type
           rdf:resource="http://purl.org/dc/dcmitype/StillImage" />
        <dc:title></dc:title>
      </cc:Work>
    </rdf:RDF>
  </metadata>
  <g
     inkscape:label="Layer 1"
     inkscape:groupmode="layer"
     id="layer1">
    <g
       id="g2995"
       transform="matrix(0.82790416,0,0,-0.56471106,26.440683,682.69811)">
      <g
         id="g2997"
         clip-path="url(#clipPath2999)">
        <g
           id="g3003"
           transform="translate(187.752,466.9072)">
          <path
             inkscape:connector-curvature="0"
             d="m 0,0 c 0,32.353 -45.434,58.58 -101.479,58.58 -56.046,0 -101.479,-26.227 -101.479,-58.58 0,-32.353 45.433,-58.58 101.479,-58.58 6.411,0 5.146,-0.15 11.228,0.506 0,0 23.5,-22 40.547,-24.713 -6.297,6.463 -12.894,19.302 -14.297,28.463 C -25.818,-45.912 0,-24.997 0,0"
             style="fill:#ffffff;fill-opacity:1;fill-rule:nonzero;stroke:none"
             id="path3005" />
        </g>
        <g
           id="g3007"
           transform="translate(187.752,466.9072)">
          <path
             inkscape:connector-curvature="0"
             d="m 0,0 c 0,32.353 -45.434,58.58 -101.479,58.58 -56.046,0 -101.479,-26.227 -101.479,-58.58 0,-32.353 45.433,-58.58 101.479,-58.58 6.411,0 5.146,-0.15 11.228,0.506 0,0 23.5,-22 40.547,-24.713 -6.297,6.463 -12.894,19.302 -14.297,28.463 C -25.818,-45.912 0,-24.997 0,0 z"
             style="fill:none;stroke:#373535;stroke-width:6;stroke-linecap:butt;stroke-linejoin:miter;stroke-miterlimit:7;stroke-opacity:1;stroke-dasharray:none"
             id="path3009" />
        </g>
        <g
           id="g3011"
           transform="translate(207.666,108.666)">
          <path
             inkscape:connector-curvature="0"
             d="m 0,0 c 0,28.497 -19.028,52.535 -45.067,60.143 -5.393,29.126 -30.912,51.19 -61.599,51.19 -34.609,0 -62.666,-28.057 -62.666,-62.666 0,-28.497 19.028,-52.535 45.067,-60.143 5.393,-29.126 30.911,-51.19 61.599,-51.19 1.794,0 3.566,0.093 5.322,0.241 3.8,-8.073 11.684,-20.131 25.546,-22.44 -7.583,10.605 -6.764,21.756 -5.577,27.53 C -15.367,-47.611 0,-25.606 0,0"
             style="fill:#ffffff;fill-opacity:1;fill-rule:nonzero;stroke:none"
             id="path3013" />
        </g>
        <g
           id="g3015"
           transform="translate(207.666,108.666)">
          <path
             inkscape:connector-curvature="0"
             d="m 0,0 c 0,28.497 -19.028,52.535 -45.067,60.143 -5.393,29.126 -30.912,51.19 -61.599,51.19 -34.609,0 -62.666,-28.057 -62.666,-62.666 0,-28.497 19.028,-52.535 45.067,-60.143 5.393,-29.126 30.911,-51.19 61.599,-51.19 1.794,0 3.566,0.093 5.322,0.241 3.8,-8.073 11.684,-20.131 25.546,-22.44 -7.583,10.605 -6.764,21.756 -5.577,27.53 C -15.367,-47.611 0,-25.606 0,0 z"
             style="fill:none;stroke:#373535;stroke-width:6;stroke-linecap:butt;stroke-linejoin:miter;stroke-miterlimit:7;stroke-opacity:1;stroke-dasharray:none"
             id="path3017" />
        </g>
        <g
           id="g3019"
           transform="translate(408.502,612)">
          <path
             inkscape:connector-curvature="0"
             d="m 0,0 -160.667,0 c -9.94,0 -18,-8.059 -18,-18 l 0,-84 c 0,-9.941 8.06,-18 18,-18 l 13.947,0 38.721,-28.667 L -121.118,-120 0,-120 c 9.941,0 18,8.059 18,18 l 0,84 C 18,-8.059 9.941,0 0,0"
             style="fill:#ffffff;fill-opacity:1;fill-rule:nonzero;stroke:none"
             id="path3021" />
        </g>
        <g
           id="g3023"
           transform="translate(408.502,612)">
          <path
             inkscape:connector-curvature="0"
             d="m 0,0 -160.667,0 c -9.94,0 -18,-8.059 -18,-18 l 0,-84 c 0,-9.941 8.06,-18 18,-18 l 13.947,0 38.721,-28.667 L -121.118,-120 0,-120 c 9.941,0 18,8.059 18,18 l 0,84 C 18,-8.059 9.941,0 0,0 z"
             style="fill:none;stroke:#373535;stroke-width:5.35699987;stroke-linecap:butt;stroke-linejoin:miter;stroke-miterlimit:7;stroke-opacity:1;stroke-dasharray:none"
             id="path3025" />
        </g>
        <g
           id="g3027"
           transform="translate(407.835,437.334)">
          <path
             inkscape:connector-curvature="0"
             d="m 0,0 -160.666,0 c -9.941,0 -18,-8.059 -18,-18 l 0,-40.335 c 0,-9.941 8.059,-18 18,-18 l 13.945,0 38.722,-28.665 -13.119,28.665 121.118,0 c 9.941,0 18,8.059 18,18 L 18,-18 C 18,-8.059 9.941,0 0,0"
             style="fill:#ffffff;fill-opacity:1;fill-rule:nonzero;stroke:none"
             id="path3029" />
        </g>
        <g
           id="g3031"
           transform="translate(407.835,437.334)">
          <path
             inkscape:connector-curvature="0"
             d="m 0,0 -160.666,0 c -9.941,0 -18,-8.059 -18,-18 l 0,-40.335 c 0,-9.941 8.059,-18 18,-18 l 13.945,0 38.722,-28.665 -13.119,28.665 121.118,0 c 9.941,0 18,8.059 18,18 L 18,-18 C 18,-8.059 9.941,0 0,0 z"
             style="fill:none;stroke:#373535;stroke-width:5.35699987;stroke-linecap:butt;stroke-linejoin:miter;stroke-miterlimit:7;stroke-opacity:1;stroke-dasharray:none"
             id="path3033" />
        </g>
        <g
           id="g3035"
           transform="translate(-12.334,310.999)">
          <path
             inkscape:connector-curvature="0"
             d="m 0,0 c 0,34.609 27.908,62.666 62.334,62.666 34.426,0 62.334,-28.057 62.334,-62.666 0,-34.609 -27.908,-62.666 -62.334,-62.666 -1.785,0 -3.547,0.093 -5.294,0.241 -3.779,-8.073 -11.622,-20.131 -25.41,-22.44 7.542,10.605 6.728,21.756 5.547,27.53 C 15.286,-47.611 0,-25.606 0,0"
             style="fill:#ffffff;fill-opacity:1;fill-rule:nonzero;stroke:none"
             id="path3037" />
        </g>
        <g
           id="g3039"
           transform="translate(-12.334,310.999)">
          <path
             inkscape:connector-curvature="0"
             d="m 0,0 c 0,34.609 27.908,62.666 62.334,62.666 34.426,0 62.334,-28.057 62.334,-62.666 0,-34.609 -27.908,-62.666 -62.334,-62.666 -1.785,0 -3.547,0.093 -5.294,0.241 -3.779,-8.073 -11.622,-20.131 -25.41,-22.44 7.542,10.605 6.728,21.756 5.547,27.53 C 15.286,-47.611 0,-25.606 0,0 z"
             style="fill:none;stroke:#373535;stroke-width:5.98400021;stroke-linecap:butt;stroke-linejoin:miter;stroke-miterlimit:7;stroke-opacity:1;stroke-dasharray:none"
             id="path3041" />
        </g>
        <g
           id="g3043"
           transform="translate(-128.834,44.666)">
          <path
             inkscape:connector-curvature="0"
             d="m 0,0 c 0,28.497 18.729,52.535 44.358,60.143 5.309,29.126 30.425,51.19 60.63,51.19 34.065,0 61.68,-28.057 61.68,-62.666 0,-28.497 -18.729,-52.535 -44.358,-60.143 -5.309,-29.126 -30.425,-51.19 -60.63,-51.19 -1.766,0 -3.51,0.093 -5.239,0.241 -3.739,-8.073 -11.5,-20.131 -25.143,-22.44 7.464,10.605 6.657,21.756 5.489,27.53 C 15.125,-47.611 0,-25.606 0,0"
             style="fill:#ffffff;fill-opacity:1;fill-rule:nonzero;stroke:none"
             id="path3045" />
        </g>
        <g
           id="g3047"
           transform="translate(-128.834,44.666)">
          <path
             inkscape:connector-curvature="0"
             d="m 0,0 c 0,28.497 18.729,52.535 44.358,60.143 5.309,29.126 30.425,51.19 60.63,51.19 34.065,0 61.68,-28.057 61.68,-62.666 0,-28.497 -18.729,-52.535 -44.358,-60.143 -5.309,-29.126 -30.425,-51.19 -60.63,-51.19 -1.766,0 -3.51,0.093 -5.239,0.241 -3.739,-8.073 -11.5,-20.131 -25.143,-22.44 7.464,10.605 6.657,21.756 5.489,27.53 C 15.125,-47.611 0,-25.606 0,0 z"
             style="fill:none;stroke:#373535;stroke-width:5.95300007;stroke-linecap:butt;stroke-linejoin:miter;stroke-miterlimit:7;stroke-opacity:1;stroke-dasharray:none"
             id="path3049" />
        </g>
        <g
           id="g3051"
           transform="translate(-172.248,568.9072)">
          <path
             inkscape:connector-curvature="0"
             d="m 0,0 c 0,32.353 45.004,58.58 100.521,58.58 55.516,0 100.521,-26.227 100.521,-58.58 0,-32.353 -45.005,-58.58 -100.521,-58.58 -6.351,0 -5.098,-0.15 -11.122,0.506 L 49.234,-82.786 c 0,0 12.772,19.301 14.163,28.462 C 25.574,-45.912 0,-24.997 0,0"
             style="fill:#ffffff;fill-opacity:1;fill-rule:nonzero;stroke:none"
             id="path3053" />
        </g>
        <g
           id="g3055"
           transform="translate(-172.248,568.9072)">
          <path
             inkscape:connector-curvature="0"
             d="m 0,0 c 0,32.353 45.004,58.58 100.521,58.58 55.516,0 100.521,-26.227 100.521,-58.58 0,-32.353 -45.005,-58.58 -100.521,-58.58 -6.351,0 -5.098,-0.15 -11.122,0.506 L 49.234,-82.786 c 0,0 12.772,19.301 14.163,28.462 C 25.574,-45.912 0,-24.997 0,0 z"
             style="fill:none;stroke:#373535;stroke-width:5.97200012;stroke-linecap:butt;stroke-linejoin:miter;stroke-miterlimit:7;stroke-opacity:1;stroke-dasharray:none"
             id="path3057" />
        </g>
        <g
           id="g3059"
           transform="translate(468.4414,612)">
          <path
             inkscape:connector-curvature="0"
             d="m 0,0 160.124,0 c 9.907,0 17.939,-8.059 17.939,-18 l 0,-84 c 0,-9.941 -8.032,-18 -17.939,-18 l -13.899,0 -38.59,-28.667 L 120.709,-120 0,-120 c -9.908,0 -17.939,8.059 -17.939,18 l 0,84 c 0,9.941 8.031,18 17.939,18"
             style="fill:#ffffff;fill-opacity:1;fill-rule:nonzero;stroke:none"
             id="path3061" />
        </g>
        <g
           id="g3063"
           transform="translate(468.4414,612)">
          <path
             inkscape:connector-curvature="0"
             d="m 0,0 160.124,0 c 9.907,0 17.939,-8.059 17.939,-18 l 0,-84 c 0,-9.941 -8.032,-18 -17.939,-18 l -13.899,0 -38.59,-28.667 L 120.709,-120 0,-120 c -9.908,0 -17.939,8.059 -17.939,18 l 0,84 c 0,9.941 8.031,18 17.939,18 z"
             style="fill:none;stroke:#373535;stroke-width:5.34800005;stroke-linecap:butt;stroke-linejoin:miter;stroke-miterlimit:7;stroke-opacity:1;stroke-dasharray:none"
             id="path3065" />
        </g>
        <g
           id="g3067"
           transform="translate(469.1055,437.3335)">
          <path
             inkscape:connector-curvature="0"
             d="m 0,0 160.124,0 c 9.908,0 17.939,-8.059 17.939,-18 l 0,-40.334 c 0,-9.941 -8.031,-18 -17.939,-18 l -13.897,0 -38.592,-28.666 13.075,28.666 -120.71,0 c -9.907,0 -17.939,8.059 -17.939,18 l 0,40.334 c 0,9.941 8.032,18 17.939,18"
             style="fill:#ffffff;fill-opacity:1;fill-rule:nonzero;stroke:none"
             id="path3069" />
        </g>
        <g
           id="g3071"
           transform="translate(469.1055,437.3335)">
          <path
             inkscape:connector-curvature="0"
             d="m 0,0 160.124,0 c 9.908,0 17.939,-8.059 17.939,-18 l 0,-40.334 c 0,-9.941 -8.031,-18 -17.939,-18 l -13.897,0 -38.592,-28.666 13.075,28.666 -120.71,0 c -9.907,0 -17.939,8.059 -17.939,18 l 0,40.334 c 0,9.941 8.032,18 17.939,18 z"
             style="fill:none;stroke:#373535;stroke-width:5.34800005;stroke-linecap:butt;stroke-linejoin:miter;stroke-miterlimit:7;stroke-opacity:1;stroke-dasharray:none"
             id="path3073" />
        </g>
        <g
           id="g3075"
           transform="translate(472.4502,113.1807)">
          <path
             inkscape:connector-curvature="0"
             d="m 0,0 21.334,52 -12,-2.332 1,13.666 L -7.334,61 l 6,10.668 -21,3.666 L -6,83.668 -25.334,95 l 11,3.334 L -33,115 -16,116 -28.334,137.668 -11,138 -24.666,165 0,151.668 l -3.666,14.666 16.332,-9.666 -2,25.666 11,-14.666 4,21.998 10.668,-17.998 11,21.998 6,-24.998 18,20.666 -2.334,-24.666 25.666,10.666 -7,-25.666 29.002,7 -16.668,-18.334 24.334,-4 -19.001,-7 33.335,-14 L 104,107 129.334,95.668 102.667,93.668 124.668,75 101,80.334 l 8.667,-25 L 90.666,67.668 91.334,45.334 81,61.668 71.666,42.668 65.334,51 58.334,38.334 52,50 46.334,35.668 40,49.334 0,0 z"
             style="fill:#ffffff;fill-opacity:1;fill-rule:nonzero;stroke:none"
             id="path3077" />
        </g>
        <g
           id="g3079"
           transform="translate(472.4502,113.1807)">
          <path
             inkscape:connector-curvature="0"
             d="m 0,0 21.334,52 -12,-2.332 1,13.666 L -7.334,61 l 6,10.668 -21,3.666 L -6,83.668 -25.334,95 l 11,3.334 L -33,115 -16,116 -28.334,137.668 -11,138 -24.666,165 0,151.668 l -3.666,14.666 16.332,-9.666 -2,25.666 11,-14.666 4,21.998 10.668,-17.998 11,21.998 6,-24.998 18,20.666 -2.334,-24.666 25.666,10.666 -7,-25.666 29.002,7 -16.668,-18.334 24.334,-4 -19.001,-7 33.335,-14 L 104,107 129.334,95.668 102.667,93.668 124.668,75 101,80.334 l 8.667,-25 L 90.666,67.668 91.334,45.334 81,61.668 71.666,42.668 65.334,51 58.334,38.334 52,50 46.334,35.668 40,49.334 0,0 z"
             style="fill:none;stroke:#373535;stroke-width:6;stroke-linecap:butt;stroke-linejoin:miter;stroke-miterlimit:7;stroke-opacity:1;stroke-dasharray:none"
             id="path3081" />
        </g>
        <g
           id="g3083"
           transform="translate(363.3228,-70.8906)">
          <path
             inkscape:connector-curvature="0"
             d="m 0,0 -21.416,52 12.047,-2.334 -1.004,13.666 17.736,-2.333 -6.023,10.667 21.082,3.666 -16.399,8.334 19.411,11.333 -11.043,3.333 18.738,16.667 -17.066,1 12.382,21.667 -17.402,0.333 13.721,27 L 0,151.666 l 3.682,14.666 -16.397,-9.666 2.008,25.667 -11.043,-14.667 -4.016,21.999 -10.709,-17.999 -11.041,21.999 -6.023,-24.999 -18.07,20.667 2.341,-24.667 -25.765,10.666 7.027,-25.666 -29.113,7 16.732,-18.334 -24.429,-4 19.074,-7 -33.463,-14 34.803,-6.333 -25.434,-11.333 26.772,-2 -22.086,-18.667 23.759,5.333 -8.701,-25 19.074,12.334 -0.67,-22.334 10.374,16.334 9.371,-19 6.357,8.334 7.027,-12.668 6.358,11.668 5.689,-14.334 6.358,13.666 L 0,0 z"
             style="fill:#ffffff;fill-opacity:1;fill-rule:nonzero;stroke:none"
             id="path3085" />
        </g>
        <g
           id="g3087"
           transform="translate(363.3228,-70.8906)">
          <path
             inkscape:connector-curvature="0"
             d="m 0,0 -21.416,52 12.047,-2.334 -1.004,13.666 17.736,-2.333 -6.023,10.667 21.082,3.666 -16.399,8.334 19.411,11.333 -11.043,3.333 18.738,16.667 -17.066,1 12.382,21.667 -17.402,0.333 13.721,27 L 0,151.666 l 3.682,14.666 -16.397,-9.666 2.008,25.667 -11.043,-14.667 -4.016,21.999 -10.709,-17.999 -11.041,21.999 -6.023,-24.999 -18.07,20.667 2.341,-24.667 -25.765,10.666 7.027,-25.666 -29.113,7 16.732,-18.334 -24.429,-4 19.074,-7 -33.463,-14 34.803,-6.333 -25.434,-11.333 26.772,-2 -22.086,-18.667 23.759,5.333 -8.701,-25 19.074,12.334 -0.67,-22.334 10.374,16.334 9.371,-19 6.357,8.334 7.027,-12.668 6.358,11.668 5.689,-14.334 6.358,13.666 L 0,0 z"
             style="fill:none;stroke:#373535;stroke-width:6.01200008;stroke-linecap:butt;stroke-linejoin:miter;stroke-miterlimit:7;stroke-opacity:1;stroke-dasharray:none"
             id="path3089" />
        </g>
        <g
           id="g3091"
           transform="translate(344.7729,142.1738)">
          <path
             inkscape:connector-curvature="0"
             d="M 0,0 -20.332,35.666 -2,28 -4.666,44.666 16,30.333 l -6.332,20 27.666,-11 L 25,61 l 29,-1.667 -19.332,15 28,3.333 -25.668,12 20,14 -23,3 10.668,23.667 L 20.334,118.666 22.668,146 4,128 5.334,156.333 -12,135.666 -19.666,157 -31.333,138.666 -42,160 -51.333,139.666 -60.666,160 l -8,-20 -15.333,25 -3.667,-26.667 -14.667,14.667 -3.333,-18.667 -15,18 0,-26.333 -18.333,13 5.333,-23.334 -25,10 14.667,-21.666 -30.667,-2.334 28,-11.666 -30,-13 34,-4.334 -16.667,-19.333 27.334,6.333 -5.334,-21 16.667,9.334 0.667,-20 16,16.333 4.333,-21.667 13.667,16 6.666,-21.333 10.334,20.333 8.666,-18.333 13,19.333 L 0,0 z"
             style="fill:#ffffff;fill-opacity:1;fill-rule:nonzero;stroke:none"
             id="path3093" />
        </g>
        <g
           id="g3095"
           transform="translate(344.7729,142.1738)">
          <path
             inkscape:connector-curvature="0"
             d="M 0,0 -20.332,35.666 -2,28 -4.666,44.666 16,30.333 l -6.332,20 27.666,-11 L 25,61 l 29,-1.667 -19.332,15 28,3.333 -25.668,12 20,14 -23,3 10.668,23.667 L 20.334,118.666 22.668,146 4,128 5.334,156.333 -12,135.666 -19.666,157 -31.333,138.666 -42,160 -51.333,139.666 -60.666,160 l -8,-20 -15.333,25 -3.667,-26.667 -14.667,14.667 -3.333,-18.667 -15,18 0,-26.333 -18.333,13 5.333,-23.334 -25,10 14.667,-21.666 -30.667,-2.334 28,-11.666 -30,-13 34,-4.334 -16.667,-19.333 27.334,6.333 -5.334,-21 16.667,9.334 0.667,-20 16,16.333 4.333,-21.667 13.667,16 6.666,-21.333 10.334,20.333 8.666,-18.333 13,19.333 L 0,0 z"
             style="fill:none;stroke:#373535;stroke-width:5.94099998;stroke-linecap:butt;stroke-linejoin:miter;stroke-miterlimit:7;stroke-opacity:1;stroke-dasharray:none"
             id="path3097" />
        </g>
        <g
           id="g3099"
           transform="translate(476.9736,-69.4727)">
          <path
             inkscape:connector-curvature="0"
             d="M 0,0 21.807,35.665 2.145,27.999 5.004,44.665 -17.158,30.332 l 6.791,20 -29.67,-11 13.226,21.667 -31.099,-1.667 20.732,15 -30.027,3.333 27.525,12 -21.449,14 24.666,3 -11.439,23.667 26.095,-11.667 -2.502,27.334 20.02,-18 -1.43,28.333 18.588,-20.667 8.223,21.334 12.512,-18.334 11.439,21.334 10.008,-20.334 10.01,20.334 8.58,-20 16.443,25 3.932,-26.667 15.728,14.667 3.576,-18.667 16.086,18 0,-26.333 19.66,13 -5.718,-23.334 26.81,10 -15.728,-21.666 32.886,-2.334 -30.027,-11.666 32.172,-13 -36.461,-4.334 17.873,-19.333 -29.312,6.333 5.718,-21 -17.873,9.334 -0.715,-20 -17.16,16.333 -4.646,-21.667 -14.656,16 L 85.08,17.332 73.998,37.665 64.703,19.332 50.762,38.665 0,0 z"
             style="fill:#ffffff;fill-opacity:1;fill-rule:nonzero;stroke:none"
             id="path3101" />
        </g>
        <g
           id="g3103"
           transform="translate(476.9736,-69.4727)">
          <path
             inkscape:connector-curvature="0"
             d="M 0,0 21.807,35.665 2.145,27.999 5.004,44.665 -17.158,30.332 l 6.791,20 -29.67,-11 13.226,21.667 -31.099,-1.667 20.732,15 -30.027,3.333 27.525,12 -21.449,14 24.666,3 -11.439,23.667 26.095,-11.667 -2.502,27.334 20.02,-18 -1.43,28.333 18.588,-20.667 8.223,21.334 12.512,-18.334 11.439,21.334 10.008,-20.334 10.01,20.334 8.58,-20 16.443,25 3.932,-26.667 15.728,14.667 3.576,-18.667 16.086,18 0,-26.333 19.66,13 -5.718,-23.334 26.81,10 -15.728,-21.666 32.886,-2.334 -30.027,-11.666 32.172,-13 -36.461,-4.334 17.873,-19.333 -29.312,6.333 5.718,-21 -17.873,9.334 -0.715,-20 -17.16,16.333 -4.646,-21.667 -14.656,16 L 85.08,17.332 73.998,37.665 64.703,19.332 50.762,38.665 0,0 z"
             style="fill:none;stroke:#373535;stroke-width:6.15199995;stroke-linecap:butt;stroke-linejoin:miter;stroke-miterlimit:7;stroke-opacity:1;stroke-dasharray:none"
             id="path3105" />
        </g>
        <g
           id="g3107"
           transform="translate(770.6113,407.3159)">
          <path
             inkscape:connector-curvature="0"
             d="m 0,0 c -2.746,6.61 -13.418,-3.558 -19.693,-2.708 -6.676,0.905 -12.377,6.202 -18.434,7.964 -6.573,1.912 -13.977,0.527 -19.611,3.316 -6.291,3.114 -10.035,10.157 -14.868,14.184 -5.566,4.636 -12.763,7.153 -15.964,12.725 -3.59,6.248 -11.041,12.17 -11.041,19.203 0,7.034 7.451,16.728 11.042,22.976 3.202,5.571 10.397,8.089 15.964,12.725 4.833,4.026 8.576,11.069 14.867,14.183 5.634,2.789 13.037,1.403 19.61,3.315 6.056,1.762 11.757,7.059 18.433,7.964 6.275,0.85 13.017,-2.708 19.695,-2.708 6.677,0 13.418,3.558 19.693,2.708 6.676,-0.905 12.377,-6.202 18.434,-7.964 6.572,-1.912 13.977,-0.526 19.611,-3.316 C 64.029,101.453 67.773,94.41 72.606,90.384 78.172,85.748 85.368,83.23 88.57,77.659 92.16,71.411 101.389,64.717 101.389,57.684 101.389,52.64 93.292,45.86 91.475,41.217 89.748,36.803 84.154,34.719 80.961,30.79 78.078,27.24 77.096,20.947 73.15,17.886 69.589,15.122 63.732,16.016 59.404,13.718 55.441,11.614 52.583,6.008 48.055,4.347 43.846,2.803 30.633,3.646 29.729,1.683 c -5.649,-7.608 6.1,-32.886 6.1,-32.886 0,0 -28.501,13.568 -35.829,31.203"
             style="fill:#ffffff;fill-opacity:1;fill-rule:nonzero;stroke:none"
             id="path3109" />
        </g>
        <g
           id="g3111"
           transform="translate(770.6113,407.3159)">
          <path
             inkscape:connector-curvature="0"
             d="m 0,0 c -2.746,6.61 -13.418,-3.558 -19.693,-2.708 -6.676,0.905 -12.377,6.202 -18.434,7.964 -6.573,1.912 -13.977,0.527 -19.611,3.316 -6.291,3.114 -10.035,10.157 -14.868,14.184 -5.566,4.636 -12.763,7.153 -15.964,12.725 -3.59,6.248 -11.041,12.17 -11.041,19.203 0,7.034 7.451,16.728 11.042,22.976 3.202,5.571 10.397,8.089 15.964,12.725 4.833,4.026 8.576,11.069 14.867,14.183 5.634,2.789 13.037,1.403 19.61,3.315 6.056,1.762 11.757,7.059 18.433,7.964 6.275,0.85 13.017,-2.708 19.695,-2.708 6.677,0 13.418,3.558 19.693,2.708 6.676,-0.905 12.377,-6.202 18.434,-7.964 6.572,-1.912 13.977,-0.526 19.611,-3.316 C 64.029,101.453 67.773,94.41 72.606,90.384 78.172,85.748 85.368,83.23 88.57,77.659 92.16,71.411 101.389,64.717 101.389,57.684 101.389,52.64 93.292,45.86 91.475,41.217 89.748,36.803 84.154,34.719 80.961,30.79 78.078,27.24 77.096,20.947 73.15,17.886 69.589,15.122 63.732,16.016 59.404,13.718 55.441,11.614 52.583,6.008 48.055,4.347 43.846,2.803 30.633,3.646 29.729,1.683 c -5.649,-7.608 6.1,-32.886 6.1,-32.886 0,0 -28.501,13.568 -35.829,31.203 z"
             style="fill:none;stroke:#373535;stroke-width:5.73000002;stroke-linecap:butt;stroke-linejoin:miter;stroke-miterlimit:7;stroke-opacity:1;stroke-dasharray:none"
             id="path3113" />
        </g>
        <g
           id="g3115"
           transform="translate(747.3887,73.3164)">
          <path
             inkscape:connector-curvature="0"
             d="m 0,0 c 2.746,6.609 13.418,-3.559 19.693,-2.708 6.676,0.904 12.377,6.202 18.434,7.964 6.573,1.912 13.977,0.526 19.611,3.315 6.291,3.115 10.035,10.158 14.868,14.185 5.566,4.636 12.763,7.152 15.964,12.724 3.59,6.249 11.041,12.17 11.041,19.204 0,7.033 -7.451,16.728 -11.042,22.976 -3.202,5.57 -10.397,8.088 -15.964,12.725 -4.833,4.025 -8.576,11.068 -14.867,14.182 -5.634,2.789 -13.037,1.404 -19.61,3.316 -6.056,1.762 -11.757,7.058 -18.433,7.963 -6.275,0.85 -13.017,-2.707 -19.695,-2.707 -6.677,0 -13.418,3.557 -19.693,2.707 -6.676,-0.905 -12.377,-6.201 -18.434,-7.963 -6.572,-1.912 -13.977,-0.527 -19.611,-3.317 -6.291,-3.114 -10.035,-10.156 -14.868,-14.183 -5.566,-4.635 -12.762,-7.153 -15.964,-12.725 -3.59,-6.248 -12.819,-12.941 -12.819,-19.974 0,-5.045 8.097,-11.825 9.914,-16.467 1.727,-4.414 7.321,-6.498 10.514,-10.428 2.883,-3.549 3.865,-9.843 7.811,-12.904 3.561,-2.764 9.418,-1.869 13.746,-4.167 3.963,-2.105 6.821,-7.71 11.349,-9.372 4.209,-1.543 17.422,-0.7 18.326,-2.663 5.649,-7.609 -6.1,-32.886 -6.1,-32.886 0,0 28.501,13.567 35.829,31.203"
             style="fill:#ffffff;fill-opacity:1;fill-rule:nonzero;stroke:none"
             id="path3117" />
        </g>
        <g
           id="g3119"
           transform="translate(747.3887,73.3164)">
          <path
             inkscape:connector-curvature="0"
             d="m 0,0 c 2.746,6.609 13.418,-3.559 19.693,-2.708 6.676,0.904 12.377,6.202 18.434,7.964 6.573,1.912 13.977,0.526 19.611,3.315 6.291,3.115 10.035,10.158 14.868,14.185 5.566,4.636 12.763,7.152 15.964,12.724 3.59,6.249 11.041,12.17 11.041,19.204 0,7.033 -7.451,16.728 -11.042,22.976 -3.202,5.57 -10.397,8.088 -15.964,12.725 -4.833,4.025 -8.576,11.068 -14.867,14.182 -5.634,2.789 -13.037,1.404 -19.61,3.316 -6.056,1.762 -11.757,7.058 -18.433,7.963 -6.275,0.85 -13.017,-2.707 -19.695,-2.707 -6.677,0 -13.418,3.557 -19.693,2.707 -6.676,-0.905 -12.377,-6.201 -18.434,-7.963 -6.572,-1.912 -13.977,-0.527 -19.611,-3.317 -6.291,-3.114 -10.035,-10.156 -14.868,-14.183 -5.566,-4.635 -12.762,-7.153 -15.964,-12.725 -3.59,-6.248 -12.819,-12.941 -12.819,-19.974 0,-5.045 8.097,-11.825 9.914,-16.467 1.727,-4.414 7.321,-6.498 10.514,-10.428 2.883,-3.549 3.865,-9.843 7.811,-12.904 3.561,-2.764 9.418,-1.869 13.746,-4.167 3.963,-2.105 6.821,-7.71 11.349,-9.372 4.209,-1.543 17.422,-0.7 18.326,-2.663 5.649,-7.609 -6.1,-32.886 -6.1,-32.886 0,0 28.501,13.567 35.829,31.203 z"
             style="fill:none;stroke:#373535;stroke-width:5.73000002;stroke-linecap:butt;stroke-linejoin:miter;stroke-miterlimit:7;stroke-opacity:1;stroke-dasharray:none"
             id="path3121" />
        </g>
        <g
           id="g3123"
           transform="translate(732.3057,249.6836)">
          <path
             inkscape:connector-curvature="0"
             d="m 0,0 c 3.921,0.503 6.61,3.643 10.33,4.926 3.74,1.291 8.323,0.593 11.757,2.613 3.429,2.018 5.303,6.512 8.322,9.199 2.992,2.663 7.491,3.831 9.982,7.096 2.445,3.206 2.596,8.111 4.461,11.844 1.809,3.622 5.569,6.49 6.744,10.558 1.605,5.558 0.091,11.598 0.292,17.142 0.207,5.74 2.104,11.648 0.934,17.117 -1.188,5.553 -5.325,10.009 -7.8,15.011 -2.478,5.009 -3.589,11.155 -7.221,15.335 -3.584,4.126 -9.243,5.804 -13.82,8.856 -4.425,2.952 -8.277,7.679 -13.508,9.383 -5.233,1.704 -10.917,0.084 -16.141,0.275 -5.399,0.198 -10.972,2.179 -16.118,0.897 -5.215,-1.299 -9.379,-5.727 -14.076,-8.398 -4.69,-2.668 -10.466,-3.894 -14.382,-7.786 -3.857,-3.831 -5.403,-9.852 -8.263,-14.728 -2.76,-4.71 -7.201,-8.81 -8.806,-14.368 -1.607,-5.557 -0.092,-11.598 -0.292,-17.142 -0.208,-5.741 -2.105,-11.648 -0.937,-17.117 1.189,-5.555 5.326,-10.01 7.801,-15.012 2.478,-5.008 3.589,-11.154 7.22,-15.334 3.586,-4.127 9.246,-5.804 13.822,-8.857 4.426,-2.951 8.276,-7.678 13.509,-9.382"
             style="fill:#ffffff;fill-opacity:1;fill-rule:nonzero;stroke:none"
             id="path3125" />
        </g>
        <g
           id="g3127"
           transform="translate(732.3057,249.6836)">
          <path
             inkscape:connector-curvature="0"
             d="m 0,0 c -0.485,4.162 6.61,3.643 10.33,4.926 3.74,1.291 8.323,0.593 11.757,2.613 3.429,2.018 5.303,6.512 8.322,9.199 2.992,2.663 7.491,3.831 9.982,7.096 2.445,3.206 2.596,8.111 4.461,11.844 1.809,3.622 5.569,6.49 6.744,10.558 1.605,5.558 0.091,11.598 0.292,17.142 0.207,5.74 2.104,11.648 0.934,17.117 -1.188,5.553 -5.325,10.009 -7.8,15.011 -2.478,5.009 -3.589,11.155 -7.221,15.335 -3.584,4.126 -9.243,5.804 -13.82,8.856 -4.425,2.952 -8.277,7.679 -13.508,9.383 -5.233,1.704 -10.917,0.084 -16.141,0.275 -5.399,0.198 -10.972,2.179 -16.118,0.897 -5.215,-1.299 -9.379,-5.727 -14.076,-8.398 -4.69,-2.668 -10.466,-3.894 -14.382,-7.786 -3.857,-3.831 -5.403,-9.852 -8.263,-14.728 -2.76,-4.71 -7.201,-8.81 -8.806,-14.368 -1.607,-5.557 -0.092,-11.598 -0.292,-17.142 -0.208,-5.741 -2.105,-11.648 -0.937,-17.117 1.189,-5.555 5.326,-10.01 7.801,-15.012 2.478,-5.008 3.589,-11.154 7.22,-15.334 3.586,-4.127 9.246,-5.804 13.822,-8.857 4.426,-2.951 8.276,-7.678 13.509,-9.382 l -9.815,-32.796 c 0,0 36.173,29.225 36.005,30.668 z"
             style="fill:none;stroke:#373535;stroke-width:6.03200006;stroke-linecap:butt;stroke-linejoin:miter;stroke-miterlimit:7;stroke-opacity:1;stroke-dasharray:none"
             id="path3129" />
        </g>
      </g>
    </g>
  </g>
</svg>
